<svg xmlns="http://www.w3.org/2000/svg" width="221" height="221" viewBox="0 0 221 221" version="1.1"><path d="M 94.168 27.154 C 30.146 36.321, -0.016 112.406, 42.136 158.407 C 48.173 164.996, 48.173 164.996, 42.437 171.528 C 36.009 178.851, 35.815 177.643, 44.388 183.711 C 48.277 186.464, 48.277 186.464, 53.973 180.115 C 59.669 173.766, 59.669 173.766, 67.085 177.314 C 153.665 218.740, 240.823 119.801, 177.441 52.041 C 172.920 47.207, 172.920 47.207, 177.983 41.422 C 183.850 34.718, 183.855 34.873, 177.593 29.566 C 172.193 24.989, 173.833 24.309, 164.849 34.846 C 161.198 39.129, 161.198 39.129, 155.349 36.182 C 138.258 27.571, 115.109 24.155, 94.168 27.154 M 92.216 48.963 C 49.146 60.577, 32.900 111.193, 61.378 145.037 C 64.087 148.257, 60.352 151.935, 100.354 106.654 C 112.303 93.128, 121.426 82.975, 134 69.208 C 145.377 56.752, 145.820 56.073, 143.622 54.465 C 134.796 48.012, 106.839 45.019, 92.216 48.963 M 145.243 77.750 C 139.118 84.763, 132.228 92.525, 129.930 95 C 127.632 97.475, 123.220 102.424, 120.126 105.998 C 117.032 109.572, 108.650 118.985, 101.500 126.917 C 70.774 161.004, 72.579 156.595, 87.296 161.601 C 148.011 182.251, 198.927 119.870, 161.857 70.250 C 156.852 63.550, 158.160 62.959, 145.243 77.750" stroke="none" fill="#fc0404" fill-rule="evenodd"/><path d="M 103 62.393 C 103 74.379, 102.757 75, 98.078 75 C 78.689 75, 65.301 109.285, 78.369 125.474 C 81.354 129.173, 90.686 120.934, 88.883 116.191 C 84.932 105.800, 89.779 89.787, 98.200 85.405 C 102.782 83.021, 102.999 83.398, 103.009 93.750 C 103.017 103.227, 111.420 99.160, 117.136 86.913 C 117.800 85.490, 119.237 83.915, 120.328 83.413 C 126.198 80.711, 127.421 76.135, 122.598 74.920 C 118 73.763, 118 73.763, 118 62.381 C 118 51, 118 51, 110.500 51 C 103 51, 103 51, 103 62.393 M 135.658 88.553 C 131.821 92.912, 131.818 92.923, 132.908 98.008 C 136.230 113.495, 128.834 130, 118.574 130 C 118.295 130, 117.940 125.291, 117.784 119.536 C 117.520 109.799, 103 117.753, 103 127.634 C 103 129.203, 102.511 129.694, 101.250 129.390 C 100.116 129.116, 98.350 130.363, 96.236 132.933 C 92.963 136.909, 94.832 138.964, 101.750 138.994 C 102.674 138.999, 103 141.870, 103 150 C 103 161, 103 161, 110.500 161 C 118 161, 118 161, 118 150.128 C 118 139.256, 118 139.256, 122.188 138.586 C 145.125 134.918, 156.383 107.694, 143.211 87.750 C 140.201 83.192, 140.395 83.171, 135.658 88.553" stroke="none" fill="#fcfcfc" fill-rule="evenodd"/></svg>